# MagicaVoxel @ Ephtracy

# group
o 

# material
mtllib Chunk_4.mtl
usemtl palette

# normals
vn -1 0 0
vn 1 0 0
vn 0 0 1
vn 0 0 -1
vn 0 -1 0
vn 0 1 0

# texcoords
vt 0.173828 0.5
vt 0.541016 0.5
vt 0.720703 0.5
vt 0.912109 0.5
vt 0.958984 0.5

# verts
v -8 0 6
v -8 0 -6
v -8 0.1 6
v -8 0.1 -6
v 3.6 0.1 4
v 3.6 0.1 -3.1
v 3.6 10 4
v 3.6 10 -3.1
v 7.6 0.1 4
v 7.6 0.1 -3.1
v 7.6 10 4
v 7.6 10 -3.1
v 8 0 6
v 8 0 -6
v 8 0.1 6
v 8 0.1 -6
v -8 0 6
v -8 0.1 6
v -3 0 6
v -3 0.1 6
v 3.2 0 6
v 3.2 0.1 6
v 8 0 6
v 8 0.1 6
v 3.6 0.1 4
v 3.6 10 4
v 7.6 0.1 4
v 7.6 10 4
v 3.6 0.1 -3.1
v 3.6 10 -3.1
v 7.6 0.1 -3.1
v 7.6 10 -3.1
v -8 0 -6
v -8 0.1 -6
v -3 0 -6
v -3 0.1 -6
v -1.2 0 -6
v -1.2 0.1 -6
v -1.1 0 -6
v -1.1 0.1 -6
v -1 0 -6
v -1 0.1 -6
v 1 0 -6
v 1 0.1 -6
v 1.2 0 -6
v 1.2 0.1 -6
v 3.2 0 -6
v 3.2 0.1 -6
v 8 0 -6
v 8 0.1 -6
v -8 0 6
v -3 0 6
v 3.2 0 6
v 8 0 6
v -1.2 0 5.8
v -1.1 0 5.8
v -1 0 5.8
v 1 0 5.8
v 1.2 0 5.8
v -1.2 0 5.2
v -1.1 0 5.2
v -1 0 5.2
v 1 0 5.2
v 1.2 0 5.2
v -1.2 0 5
v -1.1 0 5
v -1 0 5
v 1 0 5
v 1.2 0 5
v -1.2 0 4.4
v -1.1 0 4.4
v -1 0 4.4
v 1 0 4.4
v 1.2 0 4.4
v -1.2 0 4.2
v -1.1 0 4.2
v -1 0 4.2
v 1 0 4.2
v 1.2 0 4.2
v -1.2 0 3.6
v -1.1 0 3.6
v -1 0 3.6
v 1 0 3.6
v 1.2 0 3.6
v -1.2 0 3.4
v -1.1 0 3.4
v -1 0 3.4
v 1 0 3.4
v 1.2 0 3.4
v -1.2 0 2.8
v -1.1 0 2.8
v -1 0 2.8
v 1 0 2.8
v 1.2 0 2.8
v -1.2 0 2.6
v -1.1 0 2.6
v -1 0 2.6
v 1 0 2.6
v 1.2 0 2.6
v -1.2 0 2
v -1.1 0 2
v -1 0 2
v 1 0 2
v 1.2 0 2
v -1.2 0 1.8
v -1.1 0 1.8
v -1 0 1.8
v 1 0 1.8
v 1.2 0 1.8
v -1.2 0 1.2
v -1.1 0 1.2
v -1 0 1.2
v 1 0 1.2
v 1.2 0 1.2
v -1.2 0 1
v -1.1 0 1
v -1 0 1
v 1 0 1
v 1.2 0 1
v -1.2 0 0.4
v -1.1 0 0.4
v -1 0 0.4
v 1 0 0.4
v 1.2 0 0.4
v -1.2 0 0.2
v -1.1 0 0.2
v -1 0 0.2
v 1 0 0.2
v 1.2 0 0.2
v -1.2 0 -0.4
v -1.1 0 -0.4
v -1 0 -0.4
v 1 0 -0.4
v 1.2 0 -0.4
v -1.2 0 -0.6
v -1.1 0 -0.6
v -1 0 -0.6
v 1 0 -0.6
v 1.2 0 -0.6
v -1.2 0 -1.2
v -1.1 0 -1.2
v -1 0 -1.2
v 1 0 -1.2
v 1.2 0 -1.2
v -1.2 0 -1.4
v -1.1 0 -1.4
v -1 0 -1.4
v 1 0 -1.4
v 1.2 0 -1.4
v -1.2 0 -2
v -1.1 0 -2
v -1 0 -2
v 1 0 -2
v 1.2 0 -2
v -1.2 0 -2.2
v -1.1 0 -2.2
v -1 0 -2.2
v 1 0 -2.2
v 1.2 0 -2.2
v -1.2 0 -2.8
v -1.1 0 -2.8
v -1 0 -2.8
v 1 0 -2.8
v 1.2 0 -2.8
v -1.2 0 -3
v -1.1 0 -3
v -1 0 -3
v 1 0 -3
v 1.2 0 -3
v -1.2 0 -3.6
v -1.1 0 -3.6
v -1 0 -3.6
v 1 0 -3.6
v 1.2 0 -3.6
v -1.2 0 -3.8
v -1.1 0 -3.8
v -1 0 -3.8
v 1 0 -3.8
v 1.2 0 -3.8
v -1.2 0 -4.4
v -1.1 0 -4.4
v -1 0 -4.4
v 1 0 -4.4
v 1.2 0 -4.4
v -1.2 0 -4.6
v -1.1 0 -4.6
v -1 0 -4.6
v 1 0 -4.6
v 1.2 0 -4.6
v -1.2 0 -5.2
v -1.1 0 -5.2
v -1 0 -5.2
v 1 0 -5.2
v 1.2 0 -5.2
v -1.2 0 -5.4
v -1.1 0 -5.4
v -1 0 -5.4
v 1 0 -5.4
v 1.2 0 -5.4
v -8 0 -6
v -3 0 -6
v -1.2 0 -6
v -1.1 0 -6
v -1 0 -6
v 1 0 -6
v 1.2 0 -6
v 3.2 0 -6
v 8 0 -6
v -8 0.1 6
v -3 0.1 6
v 3.2 0.1 6
v 8 0.1 6
v -1.2 0.1 5.8
v -1.1 0.1 5.8
v -1 0.1 5.8
v 1 0.1 5.8
v 1.2 0.1 5.8
v -1.2 0.1 5.2
v -1.1 0.1 5.2
v -1 0.1 5.2
v 1 0.1 5.2
v 1.2 0.1 5.2
v -1.2 0.1 5
v -1.1 0.1 5
v -1 0.1 5
v 1 0.1 5
v 1.2 0.1 5
v -1.2 0.1 4.4
v -1.1 0.1 4.4
v -1 0.1 4.4
v 1 0.1 4.4
v 1.2 0.1 4.4
v -1.2 0.1 4.2
v -1.1 0.1 4.2
v -1 0.1 4.2
v 1 0.1 4.2
v 1.2 0.1 4.2
v 3.6 0.1 4
v 7.6 0.1 4
v -1.2 0.1 3.6
v -1.1 0.1 3.6
v -1 0.1 3.6
v 1 0.1 3.6
v 1.2 0.1 3.6
v -1.2 0.1 3.4
v -1.1 0.1 3.4
v -1 0.1 3.4
v 1 0.1 3.4
v 1.2 0.1 3.4
v -1.2 0.1 2.8
v -1.1 0.1 2.8
v -1 0.1 2.8
v 1 0.1 2.8
v 1.2 0.1 2.8
v -1.2 0.1 2.6
v -1.1 0.1 2.6
v -1 0.1 2.6
v 1 0.1 2.6
v 1.2 0.1 2.6
v -1.2 0.1 2
v -1.1 0.1 2
v -1 0.1 2
v 1 0.1 2
v 1.2 0.1 2
v -1.2 0.1 1.8
v -1.1 0.1 1.8
v -1 0.1 1.8
v 1 0.1 1.8
v 1.2 0.1 1.8
v -1.2 0.1 1.2
v -1.1 0.1 1.2
v -1 0.1 1.2
v 1 0.1 1.2
v 1.2 0.1 1.2
v -1.2 0.1 1
v -1.1 0.1 1
v -1 0.1 1
v 1 0.1 1
v 1.2 0.1 1
v -1.2 0.1 0.4
v -1.1 0.1 0.4
v -1 0.1 0.4
v 1 0.1 0.4
v 1.2 0.1 0.4
v -1.2 0.1 0.2
v -1.1 0.1 0.2
v -1 0.1 0.2
v 1 0.1 0.2
v 1.2 0.1 0.2
v -1.2 0.1 -0.4
v -1.1 0.1 -0.4
v -1 0.1 -0.4
v 1 0.1 -0.4
v 1.2 0.1 -0.4
v -1.2 0.1 -0.6
v -1.1 0.1 -0.6
v -1 0.1 -0.6
v 1 0.1 -0.6
v 1.2 0.1 -0.6
v -1.2 0.1 -1.2
v -1.1 0.1 -1.2
v -1 0.1 -1.2
v 1 0.1 -1.2
v 1.2 0.1 -1.2
v -1.2 0.1 -1.4
v -1.1 0.1 -1.4
v -1 0.1 -1.4
v 1 0.1 -1.4
v 1.2 0.1 -1.4
v -1.2 0.1 -2
v -1.1 0.1 -2
v -1 0.1 -2
v 1 0.1 -2
v 1.2 0.1 -2
v -1.2 0.1 -2.2
v -1.1 0.1 -2.2
v -1 0.1 -2.2
v 1 0.1 -2.2
v 1.2 0.1 -2.2
v -1.2 0.1 -2.8
v -1.1 0.1 -2.8
v -1 0.1 -2.8
v 1 0.1 -2.8
v 1.2 0.1 -2.8
v -1.2 0.1 -3
v -1.1 0.1 -3
v -1 0.1 -3
v 1 0.1 -3
v 1.2 0.1 -3
v 3.6 0.1 -3.1
v 7.6 0.1 -3.1
v -1.2 0.1 -3.6
v -1.1 0.1 -3.6
v -1 0.1 -3.6
v 1 0.1 -3.6
v 1.2 0.1 -3.6
v -1.2 0.1 -3.8
v -1.1 0.1 -3.8
v -1 0.1 -3.8
v 1 0.1 -3.8
v 1.2 0.1 -3.8
v -1.2 0.1 -4.4
v -1.1 0.1 -4.4
v -1 0.1 -4.4
v 1 0.1 -4.4
v 1.2 0.1 -4.4
v -1.2 0.1 -4.6
v -1.1 0.1 -4.6
v -1 0.1 -4.6
v 1 0.1 -4.6
v 1.2 0.1 -4.6
v -1.2 0.1 -5.2
v -1.1 0.1 -5.2
v -1 0.1 -5.2
v 1 0.1 -5.2
v 1.2 0.1 -5.2
v -1.2 0.1 -5.4
v -1.1 0.1 -5.4
v -1 0.1 -5.4
v 1 0.1 -5.4
v 1.2 0.1 -5.4
v -8 0.1 -6
v -3 0.1 -6
v -1.2 0.1 -6
v -1.1 0.1 -6
v -1 0.1 -6
v 1 0.1 -6
v 1.2 0.1 -6
v 3.2 0.1 -6
v 8 0.1 -6
v 3.6 10 4
v 7.6 10 4
v 3.6 10 -3.1
v 7.6 10 -3.1

# faces
f 3/2/1 2/2/1 1/2/1
f 4/2/1 2/2/1 3/2/1
f 7/1/1 6/1/1 5/1/1
f 8/1/1 6/1/1 7/1/1
f 9/1/2 10/1/2 11/1/2
f 11/1/2 10/1/2 12/1/2
f 13/2/2 14/2/2 15/2/2
f 15/2/2 14/2/2 16/2/2
f 19/2/3 18/2/3 17/2/3
f 20/2/3 18/2/3 19/2/3
f 21/3/3 20/3/3 19/3/3
f 22/3/3 20/3/3 21/3/3
f 23/2/3 22/2/3 21/2/3
f 24/2/3 22/2/3 23/2/3
f 27/1/3 26/1/3 25/1/3
f 28/1/3 26/1/3 27/1/3
f 29/1/4 30/1/4 31/1/4
f 31/1/4 30/1/4 32/1/4
f 33/2/4 34/2/4 35/2/4
f 35/2/4 34/2/4 36/2/4
f 35/3/4 36/3/4 37/3/4
f 37/3/4 36/3/4 38/3/4
f 37/5/4 38/5/4 39/5/4
f 39/5/4 38/5/4 40/5/4
f 39/4/4 40/4/4 41/4/4
f 41/4/4 40/4/4 42/4/4
f 41/3/4 42/3/4 43/3/4
f 43/3/4 42/3/4 44/3/4
f 43/5/4 44/5/4 45/5/4
f 45/5/4 44/5/4 46/5/4
f 45/3/4 46/3/4 47/3/4
f 47/3/4 46/3/4 48/3/4
f 47/2/4 48/2/4 49/2/4
f 49/2/4 48/2/4 50/2/4
f 55/3/5 53/3/5 52/3/5
f 56/3/5 53/3/5 55/3/5
f 57/3/5 53/3/5 56/3/5
f 58/3/5 53/3/5 57/3/5
f 59/3/5 53/3/5 58/3/5
f 60/3/5 55/3/5 52/3/5
f 60/5/5 56/5/5 55/5/5
f 61/4/5 57/4/5 56/4/5
f 61/5/5 56/5/5 60/5/5
f 62/3/5 58/3/5 57/3/5
f 62/4/5 57/4/5 61/4/5
f 63/5/5 59/5/5 58/5/5
f 63/3/5 58/3/5 62/3/5
f 64/3/5 53/3/5 59/3/5
f 64/5/5 59/5/5 63/5/5
f 65/3/5 63/3/5 62/3/5
f 65/3/5 62/3/5 61/3/5
f 65/3/5 64/3/5 63/3/5
f 65/3/5 61/3/5 60/3/5
f 65/3/5 60/3/5 52/3/5
f 66/3/5 64/3/5 65/3/5
f 67/3/5 64/3/5 66/3/5
f 68/3/5 64/3/5 67/3/5
f 69/3/5 53/3/5 64/3/5
f 69/3/5 64/3/5 68/3/5
f 70/3/5 65/3/5 52/3/5
f 70/5/5 66/5/5 65/5/5
f 71/4/5 67/4/5 66/4/5
f 71/5/5 66/5/5 70/5/5
f 72/3/5 68/3/5 67/3/5
f 72/4/5 67/4/5 71/4/5
f 73/5/5 69/5/5 68/5/5
f 73/3/5 68/3/5 72/3/5
f 74/3/5 53/3/5 69/3/5
f 74/5/5 69/5/5 73/5/5
f 75/3/5 71/3/5 70/3/5
f 75/3/5 73/3/5 72/3/5
f 75/3/5 74/3/5 73/3/5
f 75/3/5 70/3/5 52/3/5
f 75/3/5 72/3/5 71/3/5
f 76/3/5 74/3/5 75/3/5
f 77/3/5 74/3/5 76/3/5
f 78/3/5 74/3/5 77/3/5
f 79/3/5 53/3/5 74/3/5
f 79/3/5 74/3/5 78/3/5
f 80/3/5 75/3/5 52/3/5
f 80/5/5 76/5/5 75/5/5
f 81/4/5 77/4/5 76/4/5
f 81/5/5 76/5/5 80/5/5
f 82/3/5 78/3/5 77/3/5
f 82/4/5 77/4/5 81/4/5
f 83/5/5 79/5/5 78/5/5
f 83/3/5 78/3/5 82/3/5
f 84/3/5 53/3/5 79/3/5
f 84/5/5 79/5/5 83/5/5
f 85/3/5 81/3/5 80/3/5
f 85/3/5 83/3/5 82/3/5
f 85/3/5 84/3/5 83/3/5
f 85/3/5 80/3/5 52/3/5
f 85/3/5 82/3/5 81/3/5
f 86/3/5 84/3/5 85/3/5
f 87/3/5 84/3/5 86/3/5
f 88/3/5 84/3/5 87/3/5
f 89/3/5 53/3/5 84/3/5
f 89/3/5 84/3/5 88/3/5
f 90/3/5 85/3/5 52/3/5
f 90/5/5 86/5/5 85/5/5
f 91/4/5 87/4/5 86/4/5
f 91/5/5 86/5/5 90/5/5
f 92/3/5 88/3/5 87/3/5
f 92/4/5 87/4/5 91/4/5
f 93/5/5 89/5/5 88/5/5
f 93/3/5 88/3/5 92/3/5
f 94/3/5 53/3/5 89/3/5
f 94/5/5 89/5/5 93/5/5
f 95/3/5 91/3/5 90/3/5
f 95/3/5 93/3/5 92/3/5
f 95/3/5 94/3/5 93/3/5
f 95/3/5 90/3/5 52/3/5
f 95/3/5 92/3/5 91/3/5
f 96/3/5 94/3/5 95/3/5
f 97/3/5 94/3/5 96/3/5
f 98/3/5 94/3/5 97/3/5
f 99/3/5 53/3/5 94/3/5
f 99/3/5 94/3/5 98/3/5
f 100/3/5 95/3/5 52/3/5
f 100/5/5 96/5/5 95/5/5
f 101/4/5 97/4/5 96/4/5
f 101/5/5 96/5/5 100/5/5
f 102/3/5 98/3/5 97/3/5
f 102/4/5 97/4/5 101/4/5
f 103/5/5 99/5/5 98/5/5
f 103/3/5 98/3/5 102/3/5
f 104/3/5 53/3/5 99/3/5
f 104/5/5 99/5/5 103/5/5
f 105/3/5 101/3/5 100/3/5
f 105/3/5 103/3/5 102/3/5
f 105/3/5 104/3/5 103/3/5
f 105/3/5 100/3/5 52/3/5
f 105/3/5 102/3/5 101/3/5
f 106/3/5 104/3/5 105/3/5
f 107/3/5 104/3/5 106/3/5
f 108/3/5 104/3/5 107/3/5
f 109/3/5 53/3/5 104/3/5
f 109/3/5 104/3/5 108/3/5
f 110/3/5 105/3/5 52/3/5
f 110/5/5 106/5/5 105/5/5
f 111/4/5 107/4/5 106/4/5
f 111/5/5 106/5/5 110/5/5
f 112/3/5 108/3/5 107/3/5
f 112/4/5 107/4/5 111/4/5
f 113/5/5 109/5/5 108/5/5
f 113/3/5 108/3/5 112/3/5
f 114/3/5 53/3/5 109/3/5
f 114/5/5 109/5/5 113/5/5
f 115/3/5 111/3/5 110/3/5
f 115/3/5 113/3/5 112/3/5
f 115/3/5 114/3/5 113/3/5
f 115/3/5 110/3/5 52/3/5
f 115/3/5 112/3/5 111/3/5
f 116/3/5 114/3/5 115/3/5
f 117/3/5 114/3/5 116/3/5
f 118/3/5 114/3/5 117/3/5
f 119/3/5 53/3/5 114/3/5
f 119/3/5 114/3/5 118/3/5
f 120/3/5 115/3/5 52/3/5
f 120/5/5 116/5/5 115/5/5
f 121/4/5 117/4/5 116/4/5
f 121/5/5 116/5/5 120/5/5
f 122/3/5 118/3/5 117/3/5
f 122/4/5 117/4/5 121/4/5
f 123/5/5 119/5/5 118/5/5
f 123/3/5 118/3/5 122/3/5
f 124/3/5 53/3/5 119/3/5
f 124/5/5 119/5/5 123/5/5
f 125/3/5 121/3/5 120/3/5
f 125/3/5 123/3/5 122/3/5
f 125/3/5 124/3/5 123/3/5
f 125/3/5 120/3/5 52/3/5
f 125/3/5 122/3/5 121/3/5
f 126/3/5 124/3/5 125/3/5
f 127/3/5 124/3/5 126/3/5
f 128/3/5 124/3/5 127/3/5
f 129/3/5 53/3/5 124/3/5
f 129/3/5 124/3/5 128/3/5
f 130/3/5 125/3/5 52/3/5
f 130/5/5 126/5/5 125/5/5
f 131/4/5 127/4/5 126/4/5
f 131/5/5 126/5/5 130/5/5
f 132/3/5 128/3/5 127/3/5
f 132/4/5 127/4/5 131/4/5
f 133/5/5 129/5/5 128/5/5
f 133/3/5 128/3/5 132/3/5
f 134/3/5 53/3/5 129/3/5
f 134/5/5 129/5/5 133/5/5
f 135/3/5 131/3/5 130/3/5
f 135/3/5 133/3/5 132/3/5
f 135/3/5 134/3/5 133/3/5
f 135/3/5 130/3/5 52/3/5
f 135/3/5 132/3/5 131/3/5
f 136/3/5 134/3/5 135/3/5
f 137/3/5 134/3/5 136/3/5
f 138/3/5 134/3/5 137/3/5
f 139/3/5 53/3/5 134/3/5
f 139/3/5 134/3/5 138/3/5
f 140/3/5 135/3/5 52/3/5
f 140/5/5 136/5/5 135/5/5
f 141/4/5 137/4/5 136/4/5
f 141/5/5 136/5/5 140/5/5
f 142/3/5 138/3/5 137/3/5
f 142/4/5 137/4/5 141/4/5
f 143/5/5 139/5/5 138/5/5
f 143/3/5 138/3/5 142/3/5
f 144/3/5 53/3/5 139/3/5
f 144/5/5 139/5/5 143/5/5
f 145/3/5 141/3/5 140/3/5
f 145/3/5 143/3/5 142/3/5
f 145/3/5 144/3/5 143/3/5
f 145/3/5 140/3/5 52/3/5
f 145/3/5 142/3/5 141/3/5
f 146/3/5 144/3/5 145/3/5
f 147/3/5 144/3/5 146/3/5
f 148/3/5 144/3/5 147/3/5
f 149/3/5 53/3/5 144/3/5
f 149/3/5 144/3/5 148/3/5
f 150/3/5 145/3/5 52/3/5
f 150/5/5 146/5/5 145/5/5
f 151/4/5 147/4/5 146/4/5
f 151/5/5 146/5/5 150/5/5
f 152/3/5 148/3/5 147/3/5
f 152/4/5 147/4/5 151/4/5
f 153/5/5 149/5/5 148/5/5
f 153/3/5 148/3/5 152/3/5
f 154/3/5 53/3/5 149/3/5
f 154/5/5 149/5/5 153/5/5
f 155/3/5 151/3/5 150/3/5
f 155/3/5 153/3/5 152/3/5
f 155/3/5 154/3/5 153/3/5
f 155/3/5 150/3/5 52/3/5
f 155/3/5 152/3/5 151/3/5
f 156/3/5 154/3/5 155/3/5
f 157/3/5 154/3/5 156/3/5
f 158/3/5 154/3/5 157/3/5
f 159/3/5 53/3/5 154/3/5
f 159/3/5 154/3/5 158/3/5
f 160/3/5 155/3/5 52/3/5
f 160/5/5 156/5/5 155/5/5
f 161/4/5 157/4/5 156/4/5
f 161/5/5 156/5/5 160/5/5
f 162/3/5 158/3/5 157/3/5
f 162/4/5 157/4/5 161/4/5
f 163/5/5 159/5/5 158/5/5
f 163/3/5 158/3/5 162/3/5
f 164/3/5 53/3/5 159/3/5
f 164/5/5 159/5/5 163/5/5
f 165/3/5 161/3/5 160/3/5
f 165/3/5 163/3/5 162/3/5
f 165/3/5 164/3/5 163/3/5
f 165/3/5 160/3/5 52/3/5
f 165/3/5 162/3/5 161/3/5
f 166/3/5 164/3/5 165/3/5
f 167/3/5 164/3/5 166/3/5
f 168/3/5 164/3/5 167/3/5
f 169/3/5 53/3/5 164/3/5
f 169/3/5 164/3/5 168/3/5
f 170/3/5 165/3/5 52/3/5
f 170/5/5 166/5/5 165/5/5
f 171/4/5 167/4/5 166/4/5
f 171/5/5 166/5/5 170/5/5
f 172/3/5 168/3/5 167/3/5
f 172/4/5 167/4/5 171/4/5
f 173/5/5 169/5/5 168/5/5
f 173/3/5 168/3/5 172/3/5
f 174/3/5 53/3/5 169/3/5
f 174/5/5 169/5/5 173/5/5
f 175/3/5 171/3/5 170/3/5
f 175/3/5 173/3/5 172/3/5
f 175/3/5 174/3/5 173/3/5
f 175/3/5 170/3/5 52/3/5
f 175/3/5 172/3/5 171/3/5
f 176/3/5 174/3/5 175/3/5
f 177/3/5 174/3/5 176/3/5
f 178/3/5 174/3/5 177/3/5
f 179/3/5 53/3/5 174/3/5
f 179/3/5 174/3/5 178/3/5
f 180/3/5 175/3/5 52/3/5
f 180/5/5 176/5/5 175/5/5
f 181/4/5 177/4/5 176/4/5
f 181/5/5 176/5/5 180/5/5
f 182/3/5 178/3/5 177/3/5
f 182/4/5 177/4/5 181/4/5
f 183/5/5 179/5/5 178/5/5
f 183/3/5 178/3/5 182/3/5
f 184/3/5 53/3/5 179/3/5
f 184/5/5 179/5/5 183/5/5
f 185/3/5 181/3/5 180/3/5
f 185/3/5 183/3/5 182/3/5
f 185/3/5 184/3/5 183/3/5
f 185/3/5 180/3/5 52/3/5
f 185/3/5 182/3/5 181/3/5
f 186/3/5 184/3/5 185/3/5
f 187/3/5 184/3/5 186/3/5
f 188/3/5 184/3/5 187/3/5
f 189/3/5 53/3/5 184/3/5
f 189/3/5 184/3/5 188/3/5
f 190/3/5 185/3/5 52/3/5
f 190/5/5 186/5/5 185/5/5
f 191/4/5 187/4/5 186/4/5
f 191/5/5 186/5/5 190/5/5
f 192/3/5 188/3/5 187/3/5
f 192/4/5 187/4/5 191/4/5
f 193/5/5 189/5/5 188/5/5
f 193/3/5 188/3/5 192/3/5
f 194/3/5 53/3/5 189/3/5
f 194/5/5 189/5/5 193/5/5
f 195/3/5 191/3/5 190/3/5
f 195/3/5 193/3/5 192/3/5
f 195/3/5 194/3/5 193/3/5
f 195/3/5 190/3/5 52/3/5
f 195/3/5 192/3/5 191/3/5
f 196/3/5 194/3/5 195/3/5
f 197/3/5 194/3/5 196/3/5
f 198/3/5 194/3/5 197/3/5
f 199/3/5 53/3/5 194/3/5
f 199/3/5 194/3/5 198/3/5
f 200/2/5 52/2/5 51/2/5
f 201/3/5 195/3/5 52/3/5
f 201/2/5 52/2/5 200/2/5
f 202/5/5 196/5/5 195/5/5
f 202/3/5 195/3/5 201/3/5
f 203/4/5 197/4/5 196/4/5
f 203/5/5 196/5/5 202/5/5
f 204/3/5 198/3/5 197/3/5
f 204/4/5 197/4/5 203/4/5
f 205/5/5 199/5/5 198/5/5
f 205/3/5 198/3/5 204/3/5
f 206/3/5 53/3/5 199/3/5
f 206/5/5 199/5/5 205/5/5
f 207/2/5 54/2/5 53/2/5
f 207/3/5 53/3/5 206/3/5
f 208/2/5 54/2/5 207/2/5
f 210/3/6 211/3/6 213/3/6
f 213/3/6 211/3/6 214/3/6
f 214/3/6 211/3/6 215/3/6
f 215/3/6 211/3/6 216/3/6
f 216/3/6 211/3/6 217/3/6
f 210/3/6 213/3/6 218/3/6
f 213/5/6 214/5/6 218/5/6
f 214/4/6 215/4/6 219/4/6
f 218/5/6 214/5/6 219/5/6
f 215/3/6 216/3/6 220/3/6
f 219/4/6 215/4/6 220/4/6
f 216/5/6 217/5/6 221/5/6
f 220/3/6 216/3/6 221/3/6
f 217/3/6 211/3/6 222/3/6
f 221/5/6 217/5/6 222/5/6
f 220/3/6 221/3/6 223/3/6
f 219/3/6 220/3/6 223/3/6
f 221/3/6 222/3/6 223/3/6
f 218/3/6 219/3/6 223/3/6
f 210/3/6 218/3/6 223/3/6
f 223/3/6 222/3/6 224/3/6
f 224/3/6 222/3/6 225/3/6
f 225/3/6 222/3/6 226/3/6
f 222/3/6 211/3/6 227/3/6
f 226/3/6 222/3/6 227/3/6
f 210/3/6 223/3/6 228/3/6
f 223/5/6 224/5/6 228/5/6
f 224/4/6 225/4/6 229/4/6
f 228/5/6 224/5/6 229/5/6
f 225/3/6 226/3/6 230/3/6
f 229/4/6 225/4/6 230/4/6
f 226/5/6 227/5/6 231/5/6
f 230/3/6 226/3/6 231/3/6
f 227/3/6 211/3/6 232/3/6
f 231/5/6 227/5/6 232/5/6
f 228/3/6 229/3/6 233/3/6
f 230/3/6 231/3/6 233/3/6
f 231/3/6 232/3/6 233/3/6
f 210/3/6 228/3/6 233/3/6
f 229/3/6 230/3/6 233/3/6
f 233/3/6 232/3/6 234/3/6
f 234/3/6 232/3/6 235/3/6
f 235/3/6 232/3/6 236/3/6
f 232/3/6 211/3/6 237/3/6
f 236/3/6 232/3/6 237/3/6
f 211/2/6 212/2/6 238/2/6
f 238/2/6 212/2/6 239/2/6
f 210/3/6 233/3/6 240/3/6
f 233/5/6 234/5/6 240/5/6
f 234/4/6 235/4/6 241/4/6
f 240/5/6 234/5/6 241/5/6
f 235/3/6 236/3/6 242/3/6
f 241/4/6 235/4/6 242/4/6
f 236/5/6 237/5/6 243/5/6
f 242/3/6 236/3/6 243/3/6
f 237/3/6 211/3/6 244/3/6
f 243/5/6 237/5/6 244/5/6
f 242/3/6 243/3/6 245/3/6
f 240/3/6 241/3/6 245/3/6
f 243/3/6 244/3/6 245/3/6
f 241/3/6 242/3/6 245/3/6
f 210/3/6 240/3/6 245/3/6
f 245/3/6 244/3/6 246/3/6
f 246/3/6 244/3/6 247/3/6
f 247/3/6 244/3/6 248/3/6
f 244/3/6 211/3/6 249/3/6
f 248/3/6 244/3/6 249/3/6
f 210/3/6 245/3/6 250/3/6
f 245/5/6 246/5/6 250/5/6
f 246/4/6 247/4/6 251/4/6
f 250/5/6 246/5/6 251/5/6
f 247/3/6 248/3/6 252/3/6
f 251/4/6 247/4/6 252/4/6
f 248/5/6 249/5/6 253/5/6
f 252/3/6 248/3/6 253/3/6
f 249/3/6 211/3/6 254/3/6
f 253/5/6 249/5/6 254/5/6
f 250/3/6 251/3/6 255/3/6
f 252/3/6 253/3/6 255/3/6
f 253/3/6 254/3/6 255/3/6
f 210/3/6 250/3/6 255/3/6
f 251/3/6 252/3/6 255/3/6
f 255/3/6 254/3/6 256/3/6
f 256/3/6 254/3/6 257/3/6
f 257/3/6 254/3/6 258/3/6
f 254/3/6 211/3/6 259/3/6
f 258/3/6 254/3/6 259/3/6
f 210/3/6 255/3/6 260/3/6
f 255/5/6 256/5/6 260/5/6
f 256/4/6 257/4/6 261/4/6
f 260/5/6 256/5/6 261/5/6
f 257/3/6 258/3/6 262/3/6
f 261/4/6 257/4/6 262/4/6
f 258/5/6 259/5/6 263/5/6
f 262/3/6 258/3/6 263/3/6
f 259/3/6 211/3/6 264/3/6
f 263/5/6 259/5/6 264/5/6
f 260/3/6 261/3/6 265/3/6
f 262/3/6 263/3/6 265/3/6
f 263/3/6 264/3/6 265/3/6
f 210/3/6 260/3/6 265/3/6
f 261/3/6 262/3/6 265/3/6
f 265/3/6 264/3/6 266/3/6
f 266/3/6 264/3/6 267/3/6
f 267/3/6 264/3/6 268/3/6
f 264/3/6 211/3/6 269/3/6
f 268/3/6 264/3/6 269/3/6
f 210/3/6 265/3/6 270/3/6
f 265/5/6 266/5/6 270/5/6
f 266/4/6 267/4/6 271/4/6
f 270/5/6 266/5/6 271/5/6
f 267/3/6 268/3/6 272/3/6
f 271/4/6 267/4/6 272/4/6
f 268/5/6 269/5/6 273/5/6
f 272/3/6 268/3/6 273/3/6
f 269/3/6 211/3/6 274/3/6
f 273/5/6 269/5/6 274/5/6
f 270/3/6 271/3/6 275/3/6
f 272/3/6 273/3/6 275/3/6
f 273/3/6 274/3/6 275/3/6
f 210/3/6 270/3/6 275/3/6
f 271/3/6 272/3/6 275/3/6
f 275/3/6 274/3/6 276/3/6
f 276/3/6 274/3/6 277/3/6
f 277/3/6 274/3/6 278/3/6
f 274/3/6 211/3/6 279/3/6
f 278/3/6 274/3/6 279/3/6
f 210/3/6 275/3/6 280/3/6
f 275/5/6 276/5/6 280/5/6
f 276/4/6 277/4/6 281/4/6
f 280/5/6 276/5/6 281/5/6
f 277/3/6 278/3/6 282/3/6
f 281/4/6 277/4/6 282/4/6
f 278/5/6 279/5/6 283/5/6
f 282/3/6 278/3/6 283/3/6
f 279/3/6 211/3/6 284/3/6
f 283/5/6 279/5/6 284/5/6
f 280/3/6 281/3/6 285/3/6
f 282/3/6 283/3/6 285/3/6
f 283/3/6 284/3/6 285/3/6
f 210/3/6 280/3/6 285/3/6
f 281/3/6 282/3/6 285/3/6
f 285/3/6 284/3/6 286/3/6
f 286/3/6 284/3/6 287/3/6
f 287/3/6 284/3/6 288/3/6
f 284/3/6 211/3/6 289/3/6
f 288/3/6 284/3/6 289/3/6
f 210/3/6 285/3/6 290/3/6
f 285/5/6 286/5/6 290/5/6
f 286/4/6 287/4/6 291/4/6
f 290/5/6 286/5/6 291/5/6
f 287/3/6 288/3/6 292/3/6
f 291/4/6 287/4/6 292/4/6
f 288/5/6 289/5/6 293/5/6
f 292/3/6 288/3/6 293/3/6
f 289/3/6 211/3/6 294/3/6
f 293/5/6 289/5/6 294/5/6
f 290/3/6 291/3/6 295/3/6
f 292/3/6 293/3/6 295/3/6
f 293/3/6 294/3/6 295/3/6
f 210/3/6 290/3/6 295/3/6
f 291/3/6 292/3/6 295/3/6
f 295/3/6 294/3/6 296/3/6
f 296/3/6 294/3/6 297/3/6
f 297/3/6 294/3/6 298/3/6
f 294/3/6 211/3/6 299/3/6
f 298/3/6 294/3/6 299/3/6
f 210/3/6 295/3/6 300/3/6
f 295/5/6 296/5/6 300/5/6
f 296/4/6 297/4/6 301/4/6
f 300/5/6 296/5/6 301/5/6
f 297/3/6 298/3/6 302/3/6
f 301/4/6 297/4/6 302/4/6
f 298/5/6 299/5/6 303/5/6
f 302/3/6 298/3/6 303/3/6
f 299/3/6 211/3/6 304/3/6
f 303/5/6 299/5/6 304/5/6
f 300/3/6 301/3/6 305/3/6
f 302/3/6 303/3/6 305/3/6
f 303/3/6 304/3/6 305/3/6
f 210/3/6 300/3/6 305/3/6
f 301/3/6 302/3/6 305/3/6
f 305/3/6 304/3/6 306/3/6
f 306/3/6 304/3/6 307/3/6
f 307/3/6 304/3/6 308/3/6
f 304/3/6 211/3/6 309/3/6
f 308/3/6 304/3/6 309/3/6
f 210/3/6 305/3/6 310/3/6
f 305/5/6 306/5/6 310/5/6
f 306/4/6 307/4/6 311/4/6
f 310/5/6 306/5/6 311/5/6
f 307/3/6 308/3/6 312/3/6
f 311/4/6 307/4/6 312/4/6
f 308/5/6 309/5/6 313/5/6
f 312/3/6 308/3/6 313/3/6
f 309/3/6 211/3/6 314/3/6
f 313/5/6 309/5/6 314/5/6
f 310/3/6 311/3/6 315/3/6
f 312/3/6 313/3/6 315/3/6
f 313/3/6 314/3/6 315/3/6
f 210/3/6 310/3/6 315/3/6
f 311/3/6 312/3/6 315/3/6
f 315/3/6 314/3/6 316/3/6
f 316/3/6 314/3/6 317/3/6
f 317/3/6 314/3/6 318/3/6
f 314/3/6 211/3/6 319/3/6
f 318/3/6 314/3/6 319/3/6
f 210/3/6 315/3/6 320/3/6
f 315/5/6 316/5/6 320/5/6
f 316/4/6 317/4/6 321/4/6
f 320/5/6 316/5/6 321/5/6
f 317/3/6 318/3/6 322/3/6
f 321/4/6 317/4/6 322/4/6
f 318/5/6 319/5/6 323/5/6
f 322/3/6 318/3/6 323/3/6
f 319/3/6 211/3/6 324/3/6
f 323/5/6 319/5/6 324/5/6
f 320/3/6 321/3/6 325/3/6
f 322/3/6 323/3/6 325/3/6
f 323/3/6 324/3/6 325/3/6
f 210/3/6 320/3/6 325/3/6
f 321/3/6 322/3/6 325/3/6
f 325/3/6 324/3/6 326/3/6
f 326/3/6 324/3/6 327/3/6
f 327/3/6 324/3/6 328/3/6
f 324/3/6 211/3/6 329/3/6
f 328/3/6 324/3/6 329/3/6
f 211/2/6 238/2/6 330/2/6
f 239/2/6 212/2/6 331/2/6
f 210/3/6 325/3/6 332/3/6
f 325/5/6 326/5/6 332/5/6
f 326/4/6 327/4/6 333/4/6
f 332/5/6 326/5/6 333/5/6
f 327/3/6 328/3/6 334/3/6
f 333/4/6 327/4/6 334/4/6
f 328/5/6 329/5/6 335/5/6
f 334/3/6 328/3/6 335/3/6
f 329/3/6 211/3/6 336/3/6
f 335/5/6 329/5/6 336/5/6
f 332/3/6 333/3/6 337/3/6
f 334/3/6 335/3/6 337/3/6
f 335/3/6 336/3/6 337/3/6
f 210/3/6 332/3/6 337/3/6
f 333/3/6 334/3/6 337/3/6
f 337/3/6 336/3/6 338/3/6
f 338/3/6 336/3/6 339/3/6
f 339/3/6 336/3/6 340/3/6
f 336/3/6 211/3/6 341/3/6
f 340/3/6 336/3/6 341/3/6
f 210/3/6 337/3/6 342/3/6
f 337/5/6 338/5/6 342/5/6
f 338/4/6 339/4/6 343/4/6
f 342/5/6 338/5/6 343/5/6
f 339/3/6 340/3/6 344/3/6
f 343/4/6 339/4/6 344/4/6
f 340/5/6 341/5/6 345/5/6
f 344/3/6 340/3/6 345/3/6
f 341/3/6 211/3/6 346/3/6
f 345/5/6 341/5/6 346/5/6
f 342/3/6 343/3/6 347/3/6
f 344/3/6 345/3/6 347/3/6
f 345/3/6 346/3/6 347/3/6
f 210/3/6 342/3/6 347/3/6
f 343/3/6 344/3/6 347/3/6
f 347/3/6 346/3/6 348/3/6
f 348/3/6 346/3/6 349/3/6
f 349/3/6 346/3/6 350/3/6
f 346/3/6 211/3/6 351/3/6
f 350/3/6 346/3/6 351/3/6
f 210/3/6 347/3/6 352/3/6
f 347/5/6 348/5/6 352/5/6
f 348/4/6 349/4/6 353/4/6
f 352/5/6 348/5/6 353/5/6
f 349/3/6 350/3/6 354/3/6
f 353/4/6 349/4/6 354/4/6
f 350/5/6 351/5/6 355/5/6
f 354/3/6 350/3/6 355/3/6
f 351/3/6 211/3/6 356/3/6
f 355/5/6 351/5/6 356/5/6
f 352/3/6 353/3/6 357/3/6
f 354/3/6 355/3/6 357/3/6
f 355/3/6 356/3/6 357/3/6
f 210/3/6 352/3/6 357/3/6
f 353/3/6 354/3/6 357/3/6
f 357/3/6 356/3/6 358/3/6
f 358/3/6 356/3/6 359/3/6
f 359/3/6 356/3/6 360/3/6
f 356/3/6 211/3/6 361/3/6
f 360/3/6 356/3/6 361/3/6
f 209/2/6 210/2/6 362/2/6
f 210/3/6 357/3/6 363/3/6
f 362/2/6 210/2/6 363/2/6
f 357/5/6 358/5/6 364/5/6
f 363/3/6 357/3/6 364/3/6
f 358/4/6 359/4/6 365/4/6
f 364/5/6 358/5/6 365/5/6
f 359/3/6 360/3/6 366/3/6
f 365/4/6 359/4/6 366/4/6
f 360/5/6 361/5/6 367/5/6
f 366/3/6 360/3/6 367/3/6
f 361/3/6 211/3/6 368/3/6
f 367/5/6 361/5/6 368/5/6
f 211/2/6 330/2/6 369/2/6
f 368/3/6 211/3/6 369/3/6
f 330/2/6 331/2/6 369/2/6
f 331/2/6 212/2/6 370/2/6
f 369/2/6 331/2/6 370/2/6
f 371/1/6 372/1/6 373/1/6
f 373/1/6 372/1/6 374/1/6
