# MagicaVoxel @ Ephtracy

# group
o 

# material
mtllib Chunk_5.mtl
usemtl palette

# normals
vn -1 0 0
vn 1 0 0
vn 0 0 1
vn 0 0 -1
vn 0 -1 0
vn 0 1 0

# texcoords
vt 0.173828 0.5
vt 0.541016 0.5
vt 0.720703 0.5
vt 0.912109 0.5
vt 0.958984 0.5

# verts
v -8 0 6
v -8 0 -6
v -8 0.1 6
v -8 0.1 -6
v -7.7 0.1 5.9
v -7.7 0.1 3.2
v -7.7 0.1 2.8
v -7.7 0.1 0
v -7.7 0.1 -0.4
v -7.7 0.1 -2.9
v -7.7 0.1 -3.3
v -7.7 0.1 -5.9
v -7.7 10 5.9
v -7.7 10 3.2
v -7.7 10 2.8
v -7.7 10 0
v -7.7 10 -0.4
v -7.7 10 -2.9
v -7.7 10 -3.3
v -7.7 10 -5.9
v 3.8 0.1 -0.9
v 3.8 0.1 -5.6
v 3.8 10 -0.9
v 3.8 10 -5.6
v -3.4 0.1 5.9
v -3.4 0.1 3.2
v -3.4 0.1 2.8
v -3.4 0.1 0
v -3.4 0.1 -0.4
v -3.4 0.1 -2.9
v -3.4 0.1 -3.3
v -3.4 0.1 -5.9
v -3.4 10 5.9
v -3.4 10 3.2
v -3.4 10 2.8
v -3.4 10 0
v -3.4 10 -0.4
v -3.4 10 -2.9
v -3.4 10 -3.3
v -3.4 10 -5.9
v 7.7 0.1 -0.9
v 7.7 0.1 -5.6
v 7.7 10 -0.9
v 7.7 10 -5.6
v 8 0 6
v 8 0 -6
v 8 0.1 6
v 8 0.1 -6
v -8 0 6
v -8 0.1 6
v -3 0 6
v -3 0.1 6
v 3.2 0 6
v 3.2 0.1 6
v 8 0 6
v 8 0.1 6
v -7.7 0.1 5.9
v -7.7 10 5.9
v -3.4 0.1 5.9
v -3.4 10 5.9
v -7.7 0.1 2.8
v -7.7 10 2.8
v -3.4 0.1 2.8
v -3.4 10 2.8
v -7.7 0.1 -0.4
v -7.7 10 -0.4
v -3.4 0.1 -0.4
v -3.4 10 -0.4
v 3.8 0.1 -0.9
v 3.8 10 -0.9
v 7.7 0.1 -0.9
v 7.7 10 -0.9
v -7.7 0.1 -3.3
v -7.7 10 -3.3
v -3.4 0.1 -3.3
v -3.4 10 -3.3
v -7.7 0.1 3.2
v -7.7 10 3.2
v -3.4 0.1 3.2
v -3.4 10 3.2
v -7.7 0.1 0
v -7.7 10 0
v -3.4 0.1 0
v -3.4 10 0
v -7.7 0.1 -2.9
v -7.7 10 -2.9
v -3.4 0.1 -2.9
v -3.4 10 -2.9
v 3.8 0.1 -5.6
v 3.8 10 -5.6
v 7.7 0.1 -5.6
v 7.7 10 -5.6
v -7.7 0.1 -5.9
v -7.7 10 -5.9
v -3.4 0.1 -5.9
v -3.4 10 -5.9
v -8 0 -6
v -8 0.1 -6
v -3 0 -6
v -3 0.1 -6
v -1.2 0 -6
v -1.2 0.1 -6
v -1.1 0 -6
v -1.1 0.1 -6
v -1 0 -6
v -1 0.1 -6
v 1 0 -6
v 1 0.1 -6
v 1.2 0 -6
v 1.2 0.1 -6
v 3.2 0 -6
v 3.2 0.1 -6
v 8 0 -6
v 8 0.1 -6
v -8 0 6
v -3 0 6
v 3.2 0 6
v 8 0 6
v -1.2 0 5.8
v -1.1 0 5.8
v -1 0 5.8
v 1 0 5.8
v 1.2 0 5.8
v -1.2 0 5.2
v -1.1 0 5.2
v -1 0 5.2
v 1 0 5.2
v 1.2 0 5.2
v -1.2 0 5
v -1.1 0 5
v -1 0 5
v 1 0 5
v 1.2 0 5
v -1.2 0 4.4
v -1.1 0 4.4
v -1 0 4.4
v 1 0 4.4
v 1.2 0 4.4
v -1.2 0 4.2
v -1.1 0 4.2
v -1 0 4.2
v 1 0 4.2
v 1.2 0 4.2
v -1.2 0 3.6
v -1.1 0 3.6
v -1 0 3.6
v 1 0 3.6
v 1.2 0 3.6
v -1.2 0 3.4
v -1.1 0 3.4
v -1 0 3.4
v 1 0 3.4
v 1.2 0 3.4
v -1.2 0 2.8
v -1.1 0 2.8
v -1 0 2.8
v 1 0 2.8
v 1.2 0 2.8
v -1.2 0 2.6
v -1.1 0 2.6
v -1 0 2.6
v 1 0 2.6
v 1.2 0 2.6
v -1.2 0 2
v -1.1 0 2
v -1 0 2
v 1 0 2
v 1.2 0 2
v -1.2 0 1.8
v -1.1 0 1.8
v -1 0 1.8
v 1 0 1.8
v 1.2 0 1.8
v -1.2 0 1.2
v -1.1 0 1.2
v -1 0 1.2
v 1 0 1.2
v 1.2 0 1.2
v -1.2 0 1
v -1.1 0 1
v -1 0 1
v 1 0 1
v 1.2 0 1
v -1.2 0 0.4
v -1.1 0 0.4
v -1 0 0.4
v 1 0 0.4
v 1.2 0 0.4
v -1.2 0 0.2
v -1.1 0 0.2
v -1 0 0.2
v 1 0 0.2
v 1.2 0 0.2
v -1.2 0 -0.4
v -1.1 0 -0.4
v -1 0 -0.4
v 1 0 -0.4
v 1.2 0 -0.4
v -1.2 0 -0.6
v -1.1 0 -0.6
v -1 0 -0.6
v 1 0 -0.6
v 1.2 0 -0.6
v -1.2 0 -1.2
v -1.1 0 -1.2
v -1 0 -1.2
v 1 0 -1.2
v 1.2 0 -1.2
v -1.2 0 -1.4
v -1.1 0 -1.4
v -1 0 -1.4
v 1 0 -1.4
v 1.2 0 -1.4
v -1.2 0 -2
v -1.1 0 -2
v -1 0 -2
v 1 0 -2
v 1.2 0 -2
v -1.2 0 -2.2
v -1.1 0 -2.2
v -1 0 -2.2
v 1 0 -2.2
v 1.2 0 -2.2
v -1.2 0 -2.8
v -1.1 0 -2.8
v -1 0 -2.8
v 1 0 -2.8
v 1.2 0 -2.8
v -1.2 0 -3
v -1.1 0 -3
v -1 0 -3
v 1 0 -3
v 1.2 0 -3
v -1.2 0 -3.6
v -1.1 0 -3.6
v -1 0 -3.6
v 1 0 -3.6
v 1.2 0 -3.6
v -1.2 0 -3.8
v -1.1 0 -3.8
v -1 0 -3.8
v 1 0 -3.8
v 1.2 0 -3.8
v -1.2 0 -4.4
v -1.1 0 -4.4
v -1 0 -4.4
v 1 0 -4.4
v 1.2 0 -4.4
v -1.2 0 -4.6
v -1.1 0 -4.6
v -1 0 -4.6
v 1 0 -4.6
v 1.2 0 -4.6
v -1.2 0 -5.2
v -1.1 0 -5.2
v -1 0 -5.2
v 1 0 -5.2
v 1.2 0 -5.2
v -1.2 0 -5.4
v -1.1 0 -5.4
v -1 0 -5.4
v 1 0 -5.4
v 1.2 0 -5.4
v -8 0 -6
v -3 0 -6
v -1.2 0 -6
v -1.1 0 -6
v -1 0 -6
v 1 0 -6
v 1.2 0 -6
v 3.2 0 -6
v 8 0 -6
v -8 0.1 6
v -3 0.1 6
v 3.2 0.1 6
v 8 0.1 6
v -7.7 0.1 5.9
v -3.4 0.1 5.9
v -1.2 0.1 5.8
v -1.1 0.1 5.8
v -1 0.1 5.8
v 1 0.1 5.8
v 1.2 0.1 5.8
v -1.2 0.1 5.2
v -1.1 0.1 5.2
v -1 0.1 5.2
v 1 0.1 5.2
v 1.2 0.1 5.2
v -1.2 0.1 5
v -1.1 0.1 5
v -1 0.1 5
v 1 0.1 5
v 1.2 0.1 5
v -1.2 0.1 4.4
v -1.1 0.1 4.4
v -1 0.1 4.4
v 1 0.1 4.4
v 1.2 0.1 4.4
v -1.2 0.1 4.2
v -1.1 0.1 4.2
v -1 0.1 4.2
v 1 0.1 4.2
v 1.2 0.1 4.2
v -1.2 0.1 3.6
v -1.1 0.1 3.6
v -1 0.1 3.6
v 1 0.1 3.6
v 1.2 0.1 3.6
v -1.2 0.1 3.4
v -1.1 0.1 3.4
v -1 0.1 3.4
v 1 0.1 3.4
v 1.2 0.1 3.4
v -7.7 0.1 3.2
v -3.4 0.1 3.2
v -7.7 0.1 2.8
v -3.4 0.1 2.8
v -1.2 0.1 2.8
v -1.1 0.1 2.8
v -1 0.1 2.8
v 1 0.1 2.8
v 1.2 0.1 2.8
v -1.2 0.1 2.6
v -1.1 0.1 2.6
v -1 0.1 2.6
v 1 0.1 2.6
v 1.2 0.1 2.6
v -1.2 0.1 2
v -1.1 0.1 2
v -1 0.1 2
v 1 0.1 2
v 1.2 0.1 2
v -1.2 0.1 1.8
v -1.1 0.1 1.8
v -1 0.1 1.8
v 1 0.1 1.8
v 1.2 0.1 1.8
v -1.2 0.1 1.2
v -1.1 0.1 1.2
v -1 0.1 1.2
v 1 0.1 1.2
v 1.2 0.1 1.2
v -1.2 0.1 1
v -1.1 0.1 1
v -1 0.1 1
v 1 0.1 1
v 1.2 0.1 1
v -1.2 0.1 0.4
v -1.1 0.1 0.4
v -1 0.1 0.4
v 1 0.1 0.4
v 1.2 0.1 0.4
v -1.2 0.1 0.2
v -1.1 0.1 0.2
v -1 0.1 0.2
v 1 0.1 0.2
v 1.2 0.1 0.2
v -7.7 0.1 0
v -3.4 0.1 0
v -7.7 0.1 -0.4
v -3.4 0.1 -0.4
v -1.2 0.1 -0.4
v -1.1 0.1 -0.4
v -1 0.1 -0.4
v 1 0.1 -0.4
v 1.2 0.1 -0.4
v -1.2 0.1 -0.6
v -1.1 0.1 -0.6
v -1 0.1 -0.6
v 1 0.1 -0.6
v 1.2 0.1 -0.6
v 3.8 0.1 -0.9
v 7.7 0.1 -0.9
v -1.2 0.1 -1.2
v -1.1 0.1 -1.2
v -1 0.1 -1.2
v 1 0.1 -1.2
v 1.2 0.1 -1.2
v -1.2 0.1 -1.4
v -1.1 0.1 -1.4
v -1 0.1 -1.4
v 1 0.1 -1.4
v 1.2 0.1 -1.4
v -1.2 0.1 -2
v -1.1 0.1 -2
v -1 0.1 -2
v 1 0.1 -2
v 1.2 0.1 -2
v -1.2 0.1 -2.2
v -1.1 0.1 -2.2
v -1 0.1 -2.2
v 1 0.1 -2.2
v 1.2 0.1 -2.2
v -1.2 0.1 -2.8
v -1.1 0.1 -2.8
v -1 0.1 -2.8
v 1 0.1 -2.8
v 1.2 0.1 -2.8
v -7.7 0.1 -2.9
v -3.4 0.1 -2.9
v -1.2 0.1 -3
v -1.1 0.1 -3
v -1 0.1 -3
v 1 0.1 -3
v 1.2 0.1 -3
v -7.7 0.1 -3.3
v -3.4 0.1 -3.3
v -1.2 0.1 -3.6
v -1.1 0.1 -3.6
v -1 0.1 -3.6
v 1 0.1 -3.6
v 1.2 0.1 -3.6
v -1.2 0.1 -3.8
v -1.1 0.1 -3.8
v -1 0.1 -3.8
v 1 0.1 -3.8
v 1.2 0.1 -3.8
v -1.2 0.1 -4.4
v -1.1 0.1 -4.4
v -1 0.1 -4.4
v 1 0.1 -4.4
v 1.2 0.1 -4.4
v -1.2 0.1 -4.6
v -1.1 0.1 -4.6
v -1 0.1 -4.6
v 1 0.1 -4.6
v 1.2 0.1 -4.6
v -1.2 0.1 -5.2
v -1.1 0.1 -5.2
v -1 0.1 -5.2
v 1 0.1 -5.2
v 1.2 0.1 -5.2
v -1.2 0.1 -5.4
v -1.1 0.1 -5.4
v -1 0.1 -5.4
v 1 0.1 -5.4
v 1.2 0.1 -5.4
v 3.8 0.1 -5.6
v 7.7 0.1 -5.6
v -7.7 0.1 -5.9
v -3.4 0.1 -5.9
v -8 0.1 -6
v -3 0.1 -6
v -1.2 0.1 -6
v -1.1 0.1 -6
v -1 0.1 -6
v 1 0.1 -6
v 1.2 0.1 -6
v 3.2 0.1 -6
v 8 0.1 -6
v -7.7 10 5.9
v -3.4 10 5.9
v -7.7 10 3.2
v -3.4 10 3.2
v -7.7 10 2.8
v -3.4 10 2.8
v -7.7 10 0
v -3.4 10 0
v -7.7 10 -0.4
v -3.4 10 -0.4
v 3.8 10 -0.9
v 7.7 10 -0.9
v -7.7 10 -2.9
v -3.4 10 -2.9
v -7.7 10 -3.3
v -3.4 10 -3.3
v 3.8 10 -5.6
v 7.7 10 -5.6
v -7.7 10 -5.9
v -3.4 10 -5.9

# faces
f 3/2/1 2/2/1 1/2/1
f 4/2/1 2/2/1 3/2/1
f 13/1/1 6/1/1 5/1/1
f 14/1/1 6/1/1 13/1/1
f 15/1/1 8/1/1 7/1/1
f 16/1/1 8/1/1 15/1/1
f 17/1/1 10/1/1 9/1/1
f 18/1/1 10/1/1 17/1/1
f 19/1/1 12/1/1 11/1/1
f 20/1/1 12/1/1 19/1/1
f 23/1/1 22/1/1 21/1/1
f 24/1/1 22/1/1 23/1/1
f 25/1/2 26/1/2 33/1/2
f 33/1/2 26/1/2 34/1/2
f 27/1/2 28/1/2 35/1/2
f 35/1/2 28/1/2 36/1/2
f 29/1/2 30/1/2 37/1/2
f 37/1/2 30/1/2 38/1/2
f 31/1/2 32/1/2 39/1/2
f 39/1/2 32/1/2 40/1/2
f 41/1/2 42/1/2 43/1/2
f 43/1/2 42/1/2 44/1/2
f 45/2/2 46/2/2 47/2/2
f 47/2/2 46/2/2 48/2/2
f 51/2/3 50/2/3 49/2/3
f 52/2/3 50/2/3 51/2/3
f 53/3/3 52/3/3 51/3/3
f 54/3/3 52/3/3 53/3/3
f 55/2/3 54/2/3 53/2/3
f 56/2/3 54/2/3 55/2/3
f 59/1/3 58/1/3 57/1/3
f 60/1/3 58/1/3 59/1/3
f 63/1/3 62/1/3 61/1/3
f 64/1/3 62/1/3 63/1/3
f 67/1/3 66/1/3 65/1/3
f 68/1/3 66/1/3 67/1/3
f 71/1/3 70/1/3 69/1/3
f 72/1/3 70/1/3 71/1/3
f 75/1/3 74/1/3 73/1/3
f 76/1/3 74/1/3 75/1/3
f 77/1/4 78/1/4 79/1/4
f 79/1/4 78/1/4 80/1/4
f 81/1/4 82/1/4 83/1/4
f 83/1/4 82/1/4 84/1/4
f 85/1/4 86/1/4 87/1/4
f 87/1/4 86/1/4 88/1/4
f 89/1/4 90/1/4 91/1/4
f 91/1/4 90/1/4 92/1/4
f 93/1/4 94/1/4 95/1/4
f 95/1/4 94/1/4 96/1/4
f 97/2/4 98/2/4 99/2/4
f 99/2/4 98/2/4 100/2/4
f 99/3/4 100/3/4 101/3/4
f 101/3/4 100/3/4 102/3/4
f 101/5/4 102/5/4 103/5/4
f 103/5/4 102/5/4 104/5/4
f 103/4/4 104/4/4 105/4/4
f 105/4/4 104/4/4 106/4/4
f 105/3/4 106/3/4 107/3/4
f 107/3/4 106/3/4 108/3/4
f 107/5/4 108/5/4 109/5/4
f 109/5/4 108/5/4 110/5/4
f 109/3/4 110/3/4 111/3/4
f 111/3/4 110/3/4 112/3/4
f 111/2/4 112/2/4 113/2/4
f 113/2/4 112/2/4 114/2/4
f 119/3/5 117/3/5 116/3/5
f 120/3/5 117/3/5 119/3/5
f 121/3/5 117/3/5 120/3/5
f 122/3/5 117/3/5 121/3/5
f 123/3/5 117/3/5 122/3/5
f 124/3/5 119/3/5 116/3/5
f 124/5/5 120/5/5 119/5/5
f 125/4/5 121/4/5 120/4/5
f 125/5/5 120/5/5 124/5/5
f 126/3/5 122/3/5 121/3/5
f 126/4/5 121/4/5 125/4/5
f 127/5/5 123/5/5 122/5/5
f 127/3/5 122/3/5 126/3/5
f 128/3/5 117/3/5 123/3/5
f 128/5/5 123/5/5 127/5/5
f 129/3/5 127/3/5 126/3/5
f 129/3/5 126/3/5 125/3/5
f 129/3/5 128/3/5 127/3/5
f 129/3/5 125/3/5 124/3/5
f 129/3/5 124/3/5 116/3/5
f 130/3/5 128/3/5 129/3/5
f 131/3/5 128/3/5 130/3/5
f 132/3/5 128/3/5 131/3/5
f 133/3/5 117/3/5 128/3/5
f 133/3/5 128/3/5 132/3/5
f 134/3/5 129/3/5 116/3/5
f 134/5/5 130/5/5 129/5/5
f 135/4/5 131/4/5 130/4/5
f 135/5/5 130/5/5 134/5/5
f 136/3/5 132/3/5 131/3/5
f 136/4/5 131/4/5 135/4/5
f 137/5/5 133/5/5 132/5/5
f 137/3/5 132/3/5 136/3/5
f 138/3/5 117/3/5 133/3/5
f 138/5/5 133/5/5 137/5/5
f 139/3/5 135/3/5 134/3/5
f 139/3/5 137/3/5 136/3/5
f 139/3/5 138/3/5 137/3/5
f 139/3/5 134/3/5 116/3/5
f 139/3/5 136/3/5 135/3/5
f 140/3/5 138/3/5 139/3/5
f 141/3/5 138/3/5 140/3/5
f 142/3/5 138/3/5 141/3/5
f 143/3/5 117/3/5 138/3/5
f 143/3/5 138/3/5 142/3/5
f 144/3/5 139/3/5 116/3/5
f 144/5/5 140/5/5 139/5/5
f 145/4/5 141/4/5 140/4/5
f 145/5/5 140/5/5 144/5/5
f 146/3/5 142/3/5 141/3/5
f 146/4/5 141/4/5 145/4/5
f 147/5/5 143/5/5 142/5/5
f 147/3/5 142/3/5 146/3/5
f 148/3/5 117/3/5 143/3/5
f 148/5/5 143/5/5 147/5/5
f 149/3/5 145/3/5 144/3/5
f 149/3/5 147/3/5 146/3/5
f 149/3/5 148/3/5 147/3/5
f 149/3/5 144/3/5 116/3/5
f 149/3/5 146/3/5 145/3/5
f 150/3/5 148/3/5 149/3/5
f 151/3/5 148/3/5 150/3/5
f 152/3/5 148/3/5 151/3/5
f 153/3/5 117/3/5 148/3/5
f 153/3/5 148/3/5 152/3/5
f 154/3/5 149/3/5 116/3/5
f 154/5/5 150/5/5 149/5/5
f 155/4/5 151/4/5 150/4/5
f 155/5/5 150/5/5 154/5/5
f 156/3/5 152/3/5 151/3/5
f 156/4/5 151/4/5 155/4/5
f 157/5/5 153/5/5 152/5/5
f 157/3/5 152/3/5 156/3/5
f 158/3/5 117/3/5 153/3/5
f 158/5/5 153/5/5 157/5/5
f 159/3/5 155/3/5 154/3/5
f 159/3/5 157/3/5 156/3/5
f 159/3/5 158/3/5 157/3/5
f 159/3/5 154/3/5 116/3/5
f 159/3/5 156/3/5 155/3/5
f 160/3/5 158/3/5 159/3/5
f 161/3/5 158/3/5 160/3/5
f 162/3/5 158/3/5 161/3/5
f 163/3/5 117/3/5 158/3/5
f 163/3/5 158/3/5 162/3/5
f 164/3/5 159/3/5 116/3/5
f 164/5/5 160/5/5 159/5/5
f 165/4/5 161/4/5 160/4/5
f 165/5/5 160/5/5 164/5/5
f 166/3/5 162/3/5 161/3/5
f 166/4/5 161/4/5 165/4/5
f 167/5/5 163/5/5 162/5/5
f 167/3/5 162/3/5 166/3/5
f 168/3/5 117/3/5 163/3/5
f 168/5/5 163/5/5 167/5/5
f 169/3/5 165/3/5 164/3/5
f 169/3/5 167/3/5 166/3/5
f 169/3/5 168/3/5 167/3/5
f 169/3/5 164/3/5 116/3/5
f 169/3/5 166/3/5 165/3/5
f 170/3/5 168/3/5 169/3/5
f 171/3/5 168/3/5 170/3/5
f 172/3/5 168/3/5 171/3/5
f 173/3/5 117/3/5 168/3/5
f 173/3/5 168/3/5 172/3/5
f 174/3/5 169/3/5 116/3/5
f 174/5/5 170/5/5 169/5/5
f 175/4/5 171/4/5 170/4/5
f 175/5/5 170/5/5 174/5/5
f 176/3/5 172/3/5 171/3/5
f 176/4/5 171/4/5 175/4/5
f 177/5/5 173/5/5 172/5/5
f 177/3/5 172/3/5 176/3/5
f 178/3/5 117/3/5 173/3/5
f 178/5/5 173/5/5 177/5/5
f 179/3/5 175/3/5 174/3/5
f 179/3/5 177/3/5 176/3/5
f 179/3/5 178/3/5 177/3/5
f 179/3/5 174/3/5 116/3/5
f 179/3/5 176/3/5 175/3/5
f 180/3/5 178/3/5 179/3/5
f 181/3/5 178/3/5 180/3/5
f 182/3/5 178/3/5 181/3/5
f 183/3/5 117/3/5 178/3/5
f 183/3/5 178/3/5 182/3/5
f 184/3/5 179/3/5 116/3/5
f 184/5/5 180/5/5 179/5/5
f 185/4/5 181/4/5 180/4/5
f 185/5/5 180/5/5 184/5/5
f 186/3/5 182/3/5 181/3/5
f 186/4/5 181/4/5 185/4/5
f 187/5/5 183/5/5 182/5/5
f 187/3/5 182/3/5 186/3/5
f 188/3/5 117/3/5 183/3/5
f 188/5/5 183/5/5 187/5/5
f 189/3/5 185/3/5 184/3/5
f 189/3/5 187/3/5 186/3/5
f 189/3/5 188/3/5 187/3/5
f 189/3/5 184/3/5 116/3/5
f 189/3/5 186/3/5 185/3/5
f 190/3/5 188/3/5 189/3/5
f 191/3/5 188/3/5 190/3/5
f 192/3/5 188/3/5 191/3/5
f 193/3/5 117/3/5 188/3/5
f 193/3/5 188/3/5 192/3/5
f 194/3/5 189/3/5 116/3/5
f 194/5/5 190/5/5 189/5/5
f 195/4/5 191/4/5 190/4/5
f 195/5/5 190/5/5 194/5/5
f 196/3/5 192/3/5 191/3/5
f 196/4/5 191/4/5 195/4/5
f 197/5/5 193/5/5 192/5/5
f 197/3/5 192/3/5 196/3/5
f 198/3/5 117/3/5 193/3/5
f 198/5/5 193/5/5 197/5/5
f 199/3/5 195/3/5 194/3/5
f 199/3/5 197/3/5 196/3/5
f 199/3/5 198/3/5 197/3/5
f 199/3/5 194/3/5 116/3/5
f 199/3/5 196/3/5 195/3/5
f 200/3/5 198/3/5 199/3/5
f 201/3/5 198/3/5 200/3/5
f 202/3/5 198/3/5 201/3/5
f 203/3/5 117/3/5 198/3/5
f 203/3/5 198/3/5 202/3/5
f 204/3/5 199/3/5 116/3/5
f 204/5/5 200/5/5 199/5/5
f 205/4/5 201/4/5 200/4/5
f 205/5/5 200/5/5 204/5/5
f 206/3/5 202/3/5 201/3/5
f 206/4/5 201/4/5 205/4/5
f 207/5/5 203/5/5 202/5/5
f 207/3/5 202/3/5 206/3/5
f 208/3/5 117/3/5 203/3/5
f 208/5/5 203/5/5 207/5/5
f 209/3/5 205/3/5 204/3/5
f 209/3/5 207/3/5 206/3/5
f 209/3/5 208/3/5 207/3/5
f 209/3/5 204/3/5 116/3/5
f 209/3/5 206/3/5 205/3/5
f 210/3/5 208/3/5 209/3/5
f 211/3/5 208/3/5 210/3/5
f 212/3/5 208/3/5 211/3/5
f 213/3/5 117/3/5 208/3/5
f 213/3/5 208/3/5 212/3/5
f 214/3/5 209/3/5 116/3/5
f 214/5/5 210/5/5 209/5/5
f 215/4/5 211/4/5 210/4/5
f 215/5/5 210/5/5 214/5/5
f 216/3/5 212/3/5 211/3/5
f 216/4/5 211/4/5 215/4/5
f 217/5/5 213/5/5 212/5/5
f 217/3/5 212/3/5 216/3/5
f 218/3/5 117/3/5 213/3/5
f 218/5/5 213/5/5 217/5/5
f 219/3/5 215/3/5 214/3/5
f 219/3/5 217/3/5 216/3/5
f 219/3/5 218/3/5 217/3/5
f 219/3/5 214/3/5 116/3/5
f 219/3/5 216/3/5 215/3/5
f 220/3/5 218/3/5 219/3/5
f 221/3/5 218/3/5 220/3/5
f 222/3/5 218/3/5 221/3/5
f 223/3/5 117/3/5 218/3/5
f 223/3/5 218/3/5 222/3/5
f 224/3/5 219/3/5 116/3/5
f 224/5/5 220/5/5 219/5/5
f 225/4/5 221/4/5 220/4/5
f 225/5/5 220/5/5 224/5/5
f 226/3/5 222/3/5 221/3/5
f 226/4/5 221/4/5 225/4/5
f 227/5/5 223/5/5 222/5/5
f 227/3/5 222/3/5 226/3/5
f 228/3/5 117/3/5 223/3/5
f 228/5/5 223/5/5 227/5/5
f 229/3/5 225/3/5 224/3/5
f 229/3/5 227/3/5 226/3/5
f 229/3/5 228/3/5 227/3/5
f 229/3/5 224/3/5 116/3/5
f 229/3/5 226/3/5 225/3/5
f 230/3/5 228/3/5 229/3/5
f 231/3/5 228/3/5 230/3/5
f 232/3/5 228/3/5 231/3/5
f 233/3/5 117/3/5 228/3/5
f 233/3/5 228/3/5 232/3/5
f 234/3/5 229/3/5 116/3/5
f 234/5/5 230/5/5 229/5/5
f 235/4/5 231/4/5 230/4/5
f 235/5/5 230/5/5 234/5/5
f 236/3/5 232/3/5 231/3/5
f 236/4/5 231/4/5 235/4/5
f 237/5/5 233/5/5 232/5/5
f 237/3/5 232/3/5 236/3/5
f 238/3/5 117/3/5 233/3/5
f 238/5/5 233/5/5 237/5/5
f 239/3/5 235/3/5 234/3/5
f 239/3/5 237/3/5 236/3/5
f 239/3/5 238/3/5 237/3/5
f 239/3/5 234/3/5 116/3/5
f 239/3/5 236/3/5 235/3/5
f 240/3/5 238/3/5 239/3/5
f 241/3/5 238/3/5 240/3/5
f 242/3/5 238/3/5 241/3/5
f 243/3/5 117/3/5 238/3/5
f 243/3/5 238/3/5 242/3/5
f 244/3/5 239/3/5 116/3/5
f 244/5/5 240/5/5 239/5/5
f 245/4/5 241/4/5 240/4/5
f 245/5/5 240/5/5 244/5/5
f 246/3/5 242/3/5 241/3/5
f 246/4/5 241/4/5 245/4/5
f 247/5/5 243/5/5 242/5/5
f 247/3/5 242/3/5 246/3/5
f 248/3/5 117/3/5 243/3/5
f 248/5/5 243/5/5 247/5/5
f 249/3/5 245/3/5 244/3/5
f 249/3/5 247/3/5 246/3/5
f 249/3/5 248/3/5 247/3/5
f 249/3/5 244/3/5 116/3/5
f 249/3/5 246/3/5 245/3/5
f 250/3/5 248/3/5 249/3/5
f 251/3/5 248/3/5 250/3/5
f 252/3/5 248/3/5 251/3/5
f 253/3/5 117/3/5 248/3/5
f 253/3/5 248/3/5 252/3/5
f 254/3/5 249/3/5 116/3/5
f 254/5/5 250/5/5 249/5/5
f 255/4/5 251/4/5 250/4/5
f 255/5/5 250/5/5 254/5/5
f 256/3/5 252/3/5 251/3/5
f 256/4/5 251/4/5 255/4/5
f 257/5/5 253/5/5 252/5/5
f 257/3/5 252/3/5 256/3/5
f 258/3/5 117/3/5 253/3/5
f 258/5/5 253/5/5 257/5/5
f 259/3/5 255/3/5 254/3/5
f 259/3/5 257/3/5 256/3/5
f 259/3/5 258/3/5 257/3/5
f 259/3/5 254/3/5 116/3/5
f 259/3/5 256/3/5 255/3/5
f 260/3/5 258/3/5 259/3/5
f 261/3/5 258/3/5 260/3/5
f 262/3/5 258/3/5 261/3/5
f 263/3/5 117/3/5 258/3/5
f 263/3/5 258/3/5 262/3/5
f 264/2/5 116/2/5 115/2/5
f 265/3/5 259/3/5 116/3/5
f 265/2/5 116/2/5 264/2/5
f 266/5/5 260/5/5 259/5/5
f 266/3/5 259/3/5 265/3/5
f 267/4/5 261/4/5 260/4/5
f 267/5/5 260/5/5 266/5/5
f 268/3/5 262/3/5 261/3/5
f 268/4/5 261/4/5 267/4/5
f 269/5/5 263/5/5 262/5/5
f 269/3/5 262/3/5 268/3/5
f 270/3/5 117/3/5 263/3/5
f 270/5/5 263/5/5 269/5/5
f 271/2/5 118/2/5 117/2/5
f 271/3/5 117/3/5 270/3/5
f 272/2/5 118/2/5 271/2/5
f 273/2/6 274/2/6 277/2/6
f 277/2/6 274/2/6 278/2/6
f 274/3/6 275/3/6 279/3/6
f 279/3/6 275/3/6 280/3/6
f 280/3/6 275/3/6 281/3/6
f 281/3/6 275/3/6 282/3/6
f 282/3/6 275/3/6 283/3/6
f 274/3/6 279/3/6 284/3/6
f 279/5/6 280/5/6 284/5/6
f 280/4/6 281/4/6 285/4/6
f 284/5/6 280/5/6 285/5/6
f 281/3/6 282/3/6 286/3/6
f 285/4/6 281/4/6 286/4/6
f 282/5/6 283/5/6 287/5/6
f 286/3/6 282/3/6 287/3/6
f 283/3/6 275/3/6 288/3/6
f 287/5/6 283/5/6 288/5/6
f 286/3/6 287/3/6 289/3/6
f 285/3/6 286/3/6 289/3/6
f 287/3/6 288/3/6 289/3/6
f 284/3/6 285/3/6 289/3/6
f 274/3/6 284/3/6 289/3/6
f 289/3/6 288/3/6 290/3/6
f 290/3/6 288/3/6 291/3/6
f 291/3/6 288/3/6 292/3/6
f 288/3/6 275/3/6 293/3/6
f 292/3/6 288/3/6 293/3/6
f 274/3/6 289/3/6 294/3/6
f 289/5/6 290/5/6 294/5/6
f 290/4/6 291/4/6 295/4/6
f 294/5/6 290/5/6 295/5/6
f 291/3/6 292/3/6 296/3/6
f 295/4/6 291/4/6 296/4/6
f 292/5/6 293/5/6 297/5/6
f 296/3/6 292/3/6 297/3/6
f 293/3/6 275/3/6 298/3/6
f 297/5/6 293/5/6 298/5/6
f 294/3/6 295/3/6 299/3/6
f 296/3/6 297/3/6 299/3/6
f 297/3/6 298/3/6 299/3/6
f 274/3/6 294/3/6 299/3/6
f 295/3/6 296/3/6 299/3/6
f 299/3/6 298/3/6 300/3/6
f 300/3/6 298/3/6 301/3/6
f 301/3/6 298/3/6 302/3/6
f 298/3/6 275/3/6 303/3/6
f 302/3/6 298/3/6 303/3/6
f 274/3/6 299/3/6 304/3/6
f 299/5/6 300/5/6 304/5/6
f 300/4/6 301/4/6 305/4/6
f 304/5/6 300/5/6 305/5/6
f 301/3/6 302/3/6 306/3/6
f 305/4/6 301/4/6 306/4/6
f 302/5/6 303/5/6 307/5/6
f 306/3/6 302/3/6 307/3/6
f 303/3/6 275/3/6 308/3/6
f 307/5/6 303/5/6 308/5/6
f 304/3/6 305/3/6 309/3/6
f 306/3/6 307/3/6 309/3/6
f 307/3/6 308/3/6 309/3/6
f 274/3/6 304/3/6 309/3/6
f 305/3/6 306/3/6 309/3/6
f 309/3/6 308/3/6 310/3/6
f 310/3/6 308/3/6 311/3/6
f 311/3/6 308/3/6 312/3/6
f 308/3/6 275/3/6 313/3/6
f 312/3/6 308/3/6 313/3/6
f 273/2/6 277/2/6 314/2/6
f 278/2/6 274/2/6 315/2/6
f 273/2/6 314/2/6 316/2/6
f 314/2/6 315/2/6 316/2/6
f 315/2/6 274/2/6 317/2/6
f 316/2/6 315/2/6 317/2/6
f 274/3/6 309/3/6 318/3/6
f 309/5/6 310/5/6 318/5/6
f 310/4/6 311/4/6 319/4/6
f 318/5/6 310/5/6 319/5/6
f 311/3/6 312/3/6 320/3/6
f 319/4/6 311/4/6 320/4/6
f 312/5/6 313/5/6 321/5/6
f 320/3/6 312/3/6 321/3/6
f 313/3/6 275/3/6 322/3/6
f 321/5/6 313/5/6 322/5/6
f 320/3/6 321/3/6 323/3/6
f 318/3/6 319/3/6 323/3/6
f 321/3/6 322/3/6 323/3/6
f 319/3/6 320/3/6 323/3/6
f 274/3/6 318/3/6 323/3/6
f 323/3/6 322/3/6 324/3/6
f 324/3/6 322/3/6 325/3/6
f 325/3/6 322/3/6 326/3/6
f 322/3/6 275/3/6 327/3/6
f 326/3/6 322/3/6 327/3/6
f 274/3/6 323/3/6 328/3/6
f 323/5/6 324/5/6 328/5/6
f 324/4/6 325/4/6 329/4/6
f 328/5/6 324/5/6 329/5/6
f 325/3/6 326/3/6 330/3/6
f 329/4/6 325/4/6 330/4/6
f 326/5/6 327/5/6 331/5/6
f 330/3/6 326/3/6 331/3/6
f 327/3/6 275/3/6 332/3/6
f 331/5/6 327/5/6 332/5/6
f 328/3/6 329/3/6 333/3/6
f 330/3/6 331/3/6 333/3/6
f 331/3/6 332/3/6 333/3/6
f 274/3/6 328/3/6 333/3/6
f 329/3/6 330/3/6 333/3/6
f 333/3/6 332/3/6 334/3/6
f 334/3/6 332/3/6 335/3/6
f 335/3/6 332/3/6 336/3/6
f 332/3/6 275/3/6 337/3/6
f 336/3/6 332/3/6 337/3/6
f 274/3/6 333/3/6 338/3/6
f 333/5/6 334/5/6 338/5/6
f 334/4/6 335/4/6 339/4/6
f 338/5/6 334/5/6 339/5/6
f 335/3/6 336/3/6 340/3/6
f 339/4/6 335/4/6 340/4/6
f 336/5/6 337/5/6 341/5/6
f 340/3/6 336/3/6 341/3/6
f 337/3/6 275/3/6 342/3/6
f 341/5/6 337/5/6 342/5/6
f 338/3/6 339/3/6 343/3/6
f 340/3/6 341/3/6 343/3/6
f 341/3/6 342/3/6 343/3/6
f 274/3/6 338/3/6 343/3/6
f 339/3/6 340/3/6 343/3/6
f 343/3/6 342/3/6 344/3/6
f 344/3/6 342/3/6 345/3/6
f 345/3/6 342/3/6 346/3/6
f 342/3/6 275/3/6 347/3/6
f 346/3/6 342/3/6 347/3/6
f 274/3/6 343/3/6 348/3/6
f 343/5/6 344/5/6 348/5/6
f 344/4/6 345/4/6 349/4/6
f 348/5/6 344/5/6 349/5/6
f 345/3/6 346/3/6 350/3/6
f 349/4/6 345/4/6 350/4/6
f 346/5/6 347/5/6 351/5/6
f 350/3/6 346/3/6 351/3/6
f 347/3/6 275/3/6 352/3/6
f 351/5/6 347/5/6 352/5/6
f 348/3/6 349/3/6 353/3/6
f 350/3/6 351/3/6 353/3/6
f 351/3/6 352/3/6 353/3/6
f 274/3/6 348/3/6 353/3/6
f 349/3/6 350/3/6 353/3/6
f 353/3/6 352/3/6 354/3/6
f 354/3/6 352/3/6 355/3/6
f 355/3/6 352/3/6 356/3/6
f 352/3/6 275/3/6 357/3/6
f 356/3/6 352/3/6 357/3/6
f 273/2/6 316/2/6 358/2/6
f 317/2/6 274/2/6 359/2/6
f 273/2/6 358/2/6 360/2/6
f 358/2/6 359/2/6 360/2/6
f 359/2/6 274/2/6 361/2/6
f 360/2/6 359/2/6 361/2/6
f 274/3/6 353/3/6 362/3/6
f 353/5/6 354/5/6 362/5/6
f 354/4/6 355/4/6 363/4/6
f 362/5/6 354/5/6 363/5/6
f 355/3/6 356/3/6 364/3/6
f 363/4/6 355/4/6 364/4/6
f 356/5/6 357/5/6 365/5/6
f 364/3/6 356/3/6 365/3/6
f 357/3/6 275/3/6 366/3/6
f 365/5/6 357/5/6 366/5/6
f 364/3/6 365/3/6 367/3/6
f 362/3/6 363/3/6 367/3/6
f 365/3/6 366/3/6 367/3/6
f 363/3/6 364/3/6 367/3/6
f 274/3/6 362/3/6 367/3/6
f 367/3/6 366/3/6 368/3/6
f 368/3/6 366/3/6 369/3/6
f 369/3/6 366/3/6 370/3/6
f 366/3/6 275/3/6 371/3/6
f 370/3/6 366/3/6 371/3/6
f 275/2/6 276/2/6 372/2/6
f 372/2/6 276/2/6 373/2/6
f 274/3/6 367/3/6 374/3/6
f 367/5/6 368/5/6 374/5/6
f 368/4/6 369/4/6 375/4/6
f 374/5/6 368/5/6 375/5/6
f 369/3/6 370/3/6 376/3/6
f 375/4/6 369/4/6 376/4/6
f 370/5/6 371/5/6 377/5/6
f 376/3/6 370/3/6 377/3/6
f 371/3/6 275/3/6 378/3/6
f 377/5/6 371/5/6 378/5/6
f 376/3/6 377/3/6 379/3/6
f 374/3/6 375/3/6 379/3/6
f 377/3/6 378/3/6 379/3/6
f 375/3/6 376/3/6 379/3/6
f 274/3/6 374/3/6 379/3/6
f 379/3/6 378/3/6 380/3/6
f 380/3/6 378/3/6 381/3/6
f 381/3/6 378/3/6 382/3/6
f 378/3/6 275/3/6 383/3/6
f 382/3/6 378/3/6 383/3/6
f 274/3/6 379/3/6 384/3/6
f 379/5/6 380/5/6 384/5/6
f 380/4/6 381/4/6 385/4/6
f 384/5/6 380/5/6 385/5/6
f 381/3/6 382/3/6 386/3/6
f 385/4/6 381/4/6 386/4/6
f 382/5/6 383/5/6 387/5/6
f 386/3/6 382/3/6 387/3/6
f 383/3/6 275/3/6 388/3/6
f 387/5/6 383/5/6 388/5/6
f 384/3/6 385/3/6 389/3/6
f 386/3/6 387/3/6 389/3/6
f 387/3/6 388/3/6 389/3/6
f 274/3/6 384/3/6 389/3/6
f 385/3/6 386/3/6 389/3/6
f 389/3/6 388/3/6 390/3/6
f 390/3/6 388/3/6 391/3/6
f 391/3/6 388/3/6 392/3/6
f 388/3/6 275/3/6 393/3/6
f 392/3/6 388/3/6 393/3/6
f 274/3/6 389/3/6 394/3/6
f 389/5/6 390/5/6 394/5/6
f 390/4/6 391/4/6 395/4/6
f 394/5/6 390/5/6 395/5/6
f 391/3/6 392/3/6 396/3/6
f 395/4/6 391/4/6 396/4/6
f 392/5/6 393/5/6 397/5/6
f 396/3/6 392/3/6 397/3/6
f 393/3/6 275/3/6 398/3/6
f 397/5/6 393/5/6 398/5/6
f 273/2/6 360/2/6 399/2/6
f 361/2/6 274/2/6 400/2/6
f 394/3/6 395/3/6 401/3/6
f 396/3/6 397/3/6 401/3/6
f 395/3/6 396/3/6 401/3/6
f 274/3/6 394/3/6 401/3/6
f 397/3/6 398/3/6 401/3/6
f 401/3/6 398/3/6 402/3/6
f 402/3/6 398/3/6 403/3/6
f 403/3/6 398/3/6 404/3/6
f 398/3/6 275/3/6 405/3/6
f 404/3/6 398/3/6 405/3/6
f 399/2/6 400/2/6 406/2/6
f 273/2/6 399/2/6 406/2/6
f 400/2/6 274/2/6 407/2/6
f 406/2/6 400/2/6 407/2/6
f 274/3/6 401/3/6 408/3/6
f 401/5/6 402/5/6 408/5/6
f 402/4/6 403/4/6 409/4/6
f 408/5/6 402/5/6 409/5/6
f 403/3/6 404/3/6 410/3/6
f 409/4/6 403/4/6 410/4/6
f 404/5/6 405/5/6 411/5/6
f 410/3/6 404/3/6 411/3/6
f 405/3/6 275/3/6 412/3/6
f 411/5/6 405/5/6 412/5/6
f 410/3/6 411/3/6 413/3/6
f 408/3/6 409/3/6 413/3/6
f 411/3/6 412/3/6 413/3/6
f 274/3/6 408/3/6 413/3/6
f 409/3/6 410/3/6 413/3/6
f 413/3/6 412/3/6 414/3/6
f 414/3/6 412/3/6 415/3/6
f 415/3/6 412/3/6 416/3/6
f 412/3/6 275/3/6 417/3/6
f 416/3/6 412/3/6 417/3/6
f 274/3/6 413/3/6 418/3/6
f 413/5/6 414/5/6 418/5/6
f 414/4/6 415/4/6 419/4/6
f 418/5/6 414/5/6 419/5/6
f 415/3/6 416/3/6 420/3/6
f 419/4/6 415/4/6 420/4/6
f 416/5/6 417/5/6 421/5/6
f 420/3/6 416/3/6 421/3/6
f 417/3/6 275/3/6 422/3/6
f 421/5/6 417/5/6 422/5/6
f 418/3/6 419/3/6 423/3/6
f 420/3/6 421/3/6 423/3/6
f 421/3/6 422/3/6 423/3/6
f 274/3/6 418/3/6 423/3/6
f 419/3/6 420/3/6 423/3/6
f 423/3/6 422/3/6 424/3/6
f 424/3/6 422/3/6 425/3/6
f 425/3/6 422/3/6 426/3/6
f 422/3/6 275/3/6 427/3/6
f 426/3/6 422/3/6 427/3/6
f 274/3/6 423/3/6 428/3/6
f 423/5/6 424/5/6 428/5/6
f 424/4/6 425/4/6 429/4/6
f 428/5/6 424/5/6 429/5/6
f 425/3/6 426/3/6 430/3/6
f 429/4/6 425/4/6 430/4/6
f 426/5/6 427/5/6 431/5/6
f 430/3/6 426/3/6 431/3/6
f 427/3/6 275/3/6 432/3/6
f 431/5/6 427/5/6 432/5/6
f 428/3/6 429/3/6 433/3/6
f 430/3/6 431/3/6 433/3/6
f 431/3/6 432/3/6 433/3/6
f 274/3/6 428/3/6 433/3/6
f 429/3/6 430/3/6 433/3/6
f 433/3/6 432/3/6 434/3/6
f 434/3/6 432/3/6 435/3/6
f 435/3/6 432/3/6 436/3/6
f 432/3/6 275/3/6 437/3/6
f 436/3/6 432/3/6 437/3/6
f 275/2/6 372/2/6 438/2/6
f 373/2/6 276/2/6 439/2/6
f 273/2/6 406/2/6 440/2/6
f 407/2/6 274/2/6 441/2/6
f 273/2/6 440/2/6 442/2/6
f 440/2/6 441/2/6 442/2/6
f 441/2/6 274/2/6 443/2/6
f 442/2/6 441/2/6 443/2/6
f 274/3/6 433/3/6 443/3/6
f 433/5/6 434/5/6 444/5/6
f 443/3/6 433/3/6 444/3/6
f 434/4/6 435/4/6 445/4/6
f 444/5/6 434/5/6 445/5/6
f 435/3/6 436/3/6 446/3/6
f 445/4/6 435/4/6 446/4/6
f 436/5/6 437/5/6 447/5/6
f 446/3/6 436/3/6 447/3/6
f 437/3/6 275/3/6 448/3/6
f 447/5/6 437/5/6 448/5/6
f 275/2/6 438/2/6 449/2/6
f 448/3/6 275/3/6 449/3/6
f 438/2/6 439/2/6 449/2/6
f 439/2/6 276/2/6 450/2/6
f 449/2/6 439/2/6 450/2/6
f 451/1/6 452/1/6 453/1/6
f 453/1/6 452/1/6 454/1/6
f 455/1/6 456/1/6 457/1/6
f 457/1/6 456/1/6 458/1/6
f 459/1/6 460/1/6 463/1/6
f 463/1/6 460/1/6 464/1/6
f 461/1/6 462/1/6 467/1/6
f 467/1/6 462/1/6 468/1/6
f 465/1/6 466/1/6 469/1/6
f 469/1/6 466/1/6 470/1/6
